<svg width="1838" height="1692" viewBox="0 0 1838 1692" fill="none" xmlns="http://www.w3.org/2000/svg">
<rect width="1838" height="1692" fill="#131520"/>
<path d="M498.901 1404.45C495.015 1404.45 491.666 1403.09 488.855 1400.36C486.127 1397.63 484.762 1394.33 484.762 1390.44C484.762 1386.55 486.127 1383.2 488.855 1380.39C491.666 1377.66 495.015 1376.3 498.901 1376.3C502.787 1376.3 506.094 1377.66 508.823 1380.39C511.634 1383.2 513.04 1386.55 513.04 1390.44C513.04 1394.33 511.634 1397.63 508.823 1400.36C506.094 1403.09 502.787 1404.45 498.901 1404.45ZM527.054 1404.45C523.168 1404.45 519.861 1403.09 517.132 1400.36C514.404 1397.63 513.04 1394.33 513.04 1390.44C513.04 1386.55 514.404 1383.2 517.132 1380.39C519.861 1377.66 523.168 1376.3 527.054 1376.3C531.023 1376.3 534.372 1377.66 537.1 1380.39C539.829 1383.2 541.193 1386.55 541.193 1390.44C541.193 1394.33 539.829 1397.63 537.1 1400.36C534.289 1403.09 530.94 1404.45 527.054 1404.45ZM555.332 1404.45C551.446 1404.45 548.138 1403.09 545.41 1400.36C542.599 1397.63 541.193 1394.33 541.193 1390.44C541.193 1386.55 542.599 1383.2 545.41 1380.39C548.138 1377.66 551.446 1376.3 555.332 1376.3C559.218 1376.3 562.525 1377.66 565.254 1380.39C568.065 1383.2 569.47 1386.55 569.47 1390.44C569.47 1394.33 568.065 1397.63 565.254 1400.36C562.525 1403.09 559.218 1404.45 555.332 1404.45ZM470.624 1376.3C466.738 1376.3 463.43 1374.94 460.702 1372.21C457.973 1369.4 456.609 1366.05 456.609 1362.16C456.609 1358.28 457.973 1354.97 460.702 1352.24C463.43 1349.43 466.738 1348.02 470.624 1348.02C474.51 1348.02 477.858 1349.43 480.67 1352.24C483.398 1354.97 484.762 1358.28 484.762 1362.16C484.762 1366.05 483.398 1369.4 480.67 1372.21C477.858 1374.94 474.51 1376.3 470.624 1376.3ZM583.609 1376.3C579.64 1376.3 576.292 1374.94 573.563 1372.21C570.835 1369.4 569.47 1366.05 569.47 1362.16C569.47 1358.28 570.835 1354.97 573.563 1352.24C576.292 1349.43 579.64 1348.02 583.609 1348.02C587.495 1348.02 590.802 1349.43 593.531 1352.24C596.259 1354.97 597.624 1358.28 597.624 1362.16C597.624 1366.05 596.259 1369.4 593.531 1372.21C590.802 1374.94 587.495 1376.3 583.609 1376.3ZM583.609 1348.02C579.64 1348.02 576.292 1346.66 573.563 1343.93C570.835 1341.2 569.47 1337.89 569.47 1334.01C569.47 1330.04 570.835 1326.69 573.563 1323.96C576.292 1321.23 579.64 1319.87 583.609 1319.87C587.495 1319.87 590.802 1321.23 593.531 1323.96C596.259 1326.77 597.624 1330.12 597.624 1334.01C597.624 1337.89 596.259 1341.2 593.531 1343.93C590.802 1346.66 587.495 1348.02 583.609 1348.02ZM498.901 1319.87C495.015 1319.87 491.666 1318.46 488.855 1315.65C486.127 1312.92 484.762 1309.62 484.762 1305.73C484.762 1301.84 486.127 1298.54 488.855 1295.81C491.666 1293 495.015 1291.59 498.901 1291.59C502.787 1291.59 506.094 1293 508.823 1295.81C511.634 1298.54 513.04 1301.84 513.04 1305.73C513.04 1309.62 511.634 1312.92 508.823 1315.65C506.094 1318.46 502.787 1319.87 498.901 1319.87ZM527.054 1319.87C523.168 1319.87 519.861 1318.46 517.132 1315.65C514.404 1312.92 513.04 1309.62 513.04 1305.73C513.04 1301.84 514.404 1298.54 517.132 1295.81C519.861 1293 523.168 1291.59 527.054 1291.59C531.023 1291.59 534.372 1293 537.1 1295.81C539.829 1298.54 541.193 1301.84 541.193 1305.73C541.193 1309.62 539.829 1312.92 537.1 1315.65C534.289 1318.46 530.94 1319.87 527.054 1319.87ZM555.332 1319.87C551.446 1319.87 548.138 1318.46 545.41 1315.65C542.599 1312.92 541.193 1309.62 541.193 1305.73C541.193 1301.84 542.599 1298.54 545.41 1295.81C548.138 1293 551.446 1291.59 555.332 1291.59C559.218 1291.59 562.525 1293 565.254 1295.81C568.065 1298.54 569.47 1301.84 569.47 1305.73C569.47 1309.62 568.065 1312.92 565.254 1315.65C562.525 1318.46 559.218 1319.87 555.332 1319.87ZM470.624 1291.59C466.738 1291.59 463.43 1290.23 460.702 1287.5C457.973 1284.77 456.609 1281.42 456.609 1277.45C456.609 1273.57 457.973 1270.26 460.702 1267.53C463.43 1264.8 466.738 1263.44 470.624 1263.44C474.51 1263.44 477.858 1264.8 480.67 1267.53C483.398 1270.26 484.762 1273.57 484.762 1277.45C484.762 1281.42 483.398 1284.77 480.67 1287.5C477.858 1290.23 474.51 1291.59 470.624 1291.59ZM470.624 1263.44C466.738 1263.44 463.43 1262.03 460.702 1259.22C457.973 1256.49 456.609 1253.19 456.609 1249.3C456.609 1245.41 457.973 1242.11 460.702 1239.38C463.43 1236.57 466.738 1235.16 470.624 1235.16C474.51 1235.16 477.858 1236.57 480.67 1239.38C483.398 1242.11 484.762 1245.41 484.762 1249.3C484.762 1253.19 483.398 1256.49 480.67 1259.22C477.858 1262.03 474.51 1263.44 470.624 1263.44ZM583.609 1263.44C579.64 1263.44 576.292 1262.03 573.563 1259.22C570.835 1256.49 569.47 1253.19 569.47 1249.3C569.47 1245.41 570.835 1242.11 573.563 1239.38C576.292 1236.57 579.64 1235.16 583.609 1235.16C587.495 1235.16 590.802 1236.57 593.531 1239.38C596.259 1242.11 597.624 1245.41 597.624 1249.3C597.624 1253.19 596.259 1256.49 593.531 1259.22C590.802 1262.03 587.495 1263.44 583.609 1263.44ZM498.901 1235.16C495.015 1235.16 491.666 1233.8 488.855 1231.07C486.127 1228.26 484.762 1224.91 484.762 1221.02C484.762 1217.14 486.127 1213.83 488.855 1211.1C491.666 1208.37 495.015 1207.01 498.901 1207.01C502.787 1207.01 506.094 1208.37 508.823 1211.1C511.634 1213.83 513.04 1217.14 513.04 1221.02C513.04 1224.99 511.634 1228.34 508.823 1231.07C506.094 1233.8 502.787 1235.16 498.901 1235.16ZM527.054 1235.16C523.168 1235.16 519.861 1233.8 517.132 1231.07C514.404 1228.26 513.04 1224.91 513.04 1221.02C513.04 1217.14 514.404 1213.83 517.132 1211.1C519.861 1208.37 523.168 1207.01 527.054 1207.01C531.023 1207.01 534.372 1208.37 537.1 1211.1C539.829 1213.83 541.193 1217.14 541.193 1221.02C541.193 1224.99 539.829 1228.34 537.1 1231.07C534.289 1233.8 530.94 1235.16 527.054 1235.16ZM555.332 1235.16C551.446 1235.16 548.138 1233.8 545.41 1231.07C542.599 1228.26 541.193 1224.91 541.193 1221.02C541.193 1217.14 542.599 1213.83 545.41 1211.1C548.138 1208.37 551.446 1207.01 555.332 1207.01C559.218 1207.01 562.525 1208.37 565.254 1211.1C568.065 1213.83 569.47 1217.14 569.47 1221.02C569.47 1224.99 568.065 1228.34 565.254 1231.07C562.525 1233.8 559.218 1235.16 555.332 1235.16ZM696.47 1404.45C692.584 1404.45 689.277 1403.09 686.548 1400.36C683.82 1397.63 682.456 1394.33 682.456 1390.44C682.456 1386.55 683.82 1383.2 686.548 1380.39C689.277 1377.66 692.584 1376.3 696.47 1376.3C700.439 1376.3 703.788 1377.66 706.516 1380.39C709.245 1383.2 710.609 1386.55 710.609 1390.44C710.609 1394.33 709.245 1397.63 706.516 1400.36C703.705 1403.09 700.356 1404.45 696.47 1404.45ZM696.47 1376.3C692.584 1376.3 689.277 1374.94 686.548 1372.21C683.82 1369.4 682.456 1366.05 682.456 1362.16C682.456 1358.28 683.82 1354.97 686.548 1352.24C689.277 1349.43 692.584 1348.02 696.47 1348.02C700.439 1348.02 703.788 1349.43 706.516 1352.24C709.245 1354.97 710.609 1358.28 710.609 1362.16C710.609 1366.05 709.245 1369.4 706.516 1372.21C703.705 1374.94 700.356 1376.3 696.47 1376.3ZM696.47 1348.02C692.584 1348.02 689.277 1346.66 686.548 1343.93C683.82 1341.2 682.456 1337.89 682.456 1334.01C682.456 1330.04 683.82 1326.69 686.548 1323.96C689.277 1321.23 692.584 1319.87 696.47 1319.87C700.439 1319.87 703.788 1321.23 706.516 1323.96C709.245 1326.77 710.609 1330.12 710.609 1334.01C710.609 1337.89 709.245 1341.2 706.516 1343.93C703.705 1346.66 700.356 1348.02 696.47 1348.02ZM696.47 1319.87C692.584 1319.87 689.277 1318.46 686.548 1315.65C683.82 1312.92 682.456 1309.62 682.456 1305.73C682.456 1301.84 683.82 1298.54 686.548 1295.81C689.277 1293 692.584 1291.59 696.47 1291.59C700.439 1291.59 703.788 1293 706.516 1295.81C709.245 1298.54 710.609 1301.84 710.609 1305.73C710.609 1309.62 709.245 1312.92 706.516 1315.65C703.705 1318.46 700.356 1319.87 696.47 1319.87ZM696.47 1291.59C692.584 1291.59 689.277 1290.23 686.548 1287.5C683.82 1284.77 682.456 1281.42 682.456 1277.45C682.456 1273.57 683.82 1270.26 686.548 1267.53C689.277 1264.8 692.584 1263.44 696.47 1263.44C700.439 1263.44 703.788 1264.8 706.516 1267.53C709.245 1270.26 710.609 1273.57 710.609 1277.45C710.609 1281.42 709.245 1284.77 706.516 1287.5C703.705 1290.23 700.356 1291.59 696.47 1291.59ZM696.47 1263.44C692.584 1263.44 689.277 1262.03 686.548 1259.22C683.82 1256.49 682.456 1253.19 682.456 1249.3C682.456 1245.41 683.82 1242.11 686.548 1239.38C689.277 1236.57 692.584 1235.16 696.47 1235.16C700.439 1235.16 703.788 1236.57 706.516 1239.38C709.245 1242.11 710.609 1245.41 710.609 1249.3C710.609 1253.19 709.245 1256.49 706.516 1259.22C703.705 1262.03 700.356 1263.44 696.47 1263.44ZM640.04 1235.16C636.154 1235.16 632.846 1233.8 630.118 1231.07C627.389 1228.26 626.025 1224.91 626.025 1221.02C626.025 1217.14 627.389 1213.83 630.118 1211.1C632.846 1208.37 636.154 1207.01 640.04 1207.01C643.926 1207.01 647.274 1208.37 650.086 1211.1C652.814 1213.83 654.178 1217.14 654.178 1221.02C654.178 1224.99 652.814 1228.34 650.086 1231.07C647.274 1233.8 643.926 1235.16 640.04 1235.16ZM668.317 1235.16C664.431 1235.16 661.082 1233.8 658.271 1231.07C655.543 1228.26 654.178 1224.91 654.178 1221.02C654.178 1217.14 655.543 1213.83 658.271 1211.1C661.082 1208.37 664.431 1207.01 668.317 1207.01C672.203 1207.01 675.51 1208.37 678.239 1211.1C681.05 1213.83 682.456 1217.14 682.456 1221.02C682.456 1224.99 681.05 1228.34 678.239 1231.07C675.51 1233.8 672.203 1235.16 668.317 1235.16ZM696.47 1235.16C692.584 1235.16 689.277 1233.8 686.548 1231.07C683.82 1228.26 682.456 1224.91 682.456 1221.02C682.456 1217.14 683.82 1213.83 686.548 1211.1C689.277 1208.37 692.584 1207.01 696.47 1207.01C700.439 1207.01 703.788 1208.37 706.516 1211.1C709.245 1213.83 710.609 1217.14 710.609 1221.02C710.609 1224.99 709.245 1228.34 706.516 1231.07C703.705 1233.8 700.356 1235.16 696.47 1235.16ZM724.748 1235.16C720.862 1235.16 717.554 1233.8 714.826 1231.07C712.015 1228.26 710.609 1224.91 710.609 1221.02C710.609 1217.14 712.015 1213.83 714.826 1211.1C717.554 1208.37 720.862 1207.01 724.748 1207.01C728.634 1207.01 731.941 1208.37 734.67 1211.1C737.481 1213.83 738.886 1217.14 738.886 1221.02C738.886 1224.99 737.481 1228.34 734.67 1231.07C731.941 1233.8 728.634 1235.16 724.748 1235.16ZM753.025 1235.16C749.056 1235.16 745.708 1233.8 742.979 1231.07C740.251 1228.26 738.886 1224.91 738.886 1221.02C738.886 1217.14 740.251 1213.83 742.979 1211.1C745.708 1208.37 749.056 1207.01 753.025 1207.01C756.911 1207.01 760.218 1208.37 762.947 1211.1C765.675 1213.83 767.04 1217.14 767.04 1221.02C767.04 1224.99 765.675 1228.34 762.947 1231.07C760.218 1233.8 756.911 1235.16 753.025 1235.16ZM781.178 1404.45C777.292 1404.45 773.985 1403.09 771.256 1400.36C768.528 1397.63 767.164 1394.33 767.164 1390.44C767.164 1386.55 768.528 1383.2 771.256 1380.39C773.985 1377.66 777.292 1376.3 781.178 1376.3C785.064 1376.3 788.413 1377.66 791.224 1380.39C793.953 1383.2 795.317 1386.55 795.317 1390.44C795.317 1394.33 793.953 1397.63 791.224 1400.36C788.413 1403.09 785.064 1404.45 781.178 1404.45ZM894.164 1404.45C890.195 1404.45 886.846 1403.09 884.118 1400.36C881.389 1397.63 880.025 1394.33 880.025 1390.44C880.025 1386.55 881.389 1383.2 884.118 1380.39C886.846 1377.66 890.195 1376.3 894.164 1376.3C898.05 1376.3 901.357 1377.66 904.086 1380.39C906.814 1383.2 908.178 1386.55 908.178 1390.44C908.178 1394.33 906.814 1397.63 904.086 1400.36C901.357 1403.09 898.05 1404.45 894.164 1404.45ZM781.178 1376.3C777.292 1376.3 773.985 1374.94 771.256 1372.21C768.528 1369.4 767.164 1366.05 767.164 1362.16C767.164 1358.28 768.528 1354.97 771.256 1352.24C773.985 1349.43 777.292 1348.02 781.178 1348.02C785.064 1348.02 788.413 1349.43 791.224 1352.24C793.953 1354.97 795.317 1358.28 795.317 1362.16C795.317 1366.05 793.953 1369.4 791.224 1372.21C788.413 1374.94 785.064 1376.3 781.178 1376.3ZM894.164 1376.3C890.195 1376.3 886.846 1374.94 884.118 1372.21C881.389 1369.4 880.025 1366.05 880.025 1362.16C880.025 1358.28 881.389 1354.97 884.118 1352.24C886.846 1349.43 890.195 1348.02 894.164 1348.02C898.05 1348.02 901.357 1349.43 904.086 1352.24C906.814 1354.97 908.178 1358.28 908.178 1362.16C908.178 1366.05 906.814 1369.4 904.086 1372.21C901.357 1374.94 898.05 1376.3 894.164 1376.3ZM781.178 1348.02C777.292 1348.02 773.985 1346.66 771.256 1343.93C768.528 1341.2 767.164 1337.89 767.164 1334.01C767.164 1330.04 768.528 1326.69 771.256 1323.96C773.985 1321.23 777.292 1319.87 781.178 1319.87C785.064 1319.87 788.413 1321.23 791.224 1323.96C793.953 1326.77 795.317 1330.12 795.317 1334.01C795.317 1337.89 793.953 1341.2 791.224 1343.93C788.413 1346.66 785.064 1348.02 781.178 1348.02ZM809.456 1348.02C805.57 1348.02 802.221 1346.66 799.41 1343.93C796.681 1341.2 795.317 1337.89 795.317 1334.01C795.317 1330.04 796.681 1326.69 799.41 1323.96C802.221 1321.23 805.57 1319.87 809.456 1319.87C813.342 1319.87 816.649 1321.23 819.378 1323.96C822.189 1326.77 823.594 1330.12 823.594 1334.01C823.594 1337.89 822.189 1341.2 819.378 1343.93C816.649 1346.66 813.342 1348.02 809.456 1348.02ZM837.609 1348.02C833.723 1348.02 830.416 1346.66 827.687 1343.93C824.959 1341.2 823.594 1337.89 823.594 1334.01C823.594 1330.04 824.959 1326.69 827.687 1323.96C830.416 1321.23 833.723 1319.87 837.609 1319.87C841.578 1319.87 844.926 1321.23 847.655 1323.96C850.383 1326.77 851.748 1330.12 851.748 1334.01C851.748 1337.89 850.383 1341.2 847.655 1343.93C844.844 1346.66 841.495 1348.02 837.609 1348.02ZM865.886 1348.02C862 1348.02 858.693 1346.66 855.964 1343.93C853.153 1341.2 851.748 1337.89 851.748 1334.01C851.748 1330.04 853.153 1326.69 855.964 1323.96C858.693 1321.23 862 1319.87 865.886 1319.87C869.772 1319.87 873.08 1321.23 875.808 1323.96C878.619 1326.77 880.025 1330.12 880.025 1334.01C880.025 1337.89 878.619 1341.2 875.808 1343.93C873.08 1346.66 869.772 1348.02 865.886 1348.02ZM894.164 1348.02C890.195 1348.02 886.846 1346.66 884.118 1343.93C881.389 1341.2 880.025 1337.89 880.025 1334.01C880.025 1330.04 881.389 1326.69 884.118 1323.96C886.846 1321.23 890.195 1319.87 894.164 1319.87C898.05 1319.87 901.357 1321.23 904.086 1323.96C906.814 1326.77 908.178 1330.12 908.178 1334.01C908.178 1337.89 906.814 1341.2 904.086 1343.93C901.357 1346.66 898.05 1348.02 894.164 1348.02ZM781.178 1319.87C777.292 1319.87 773.985 1318.46 771.256 1315.65C768.528 1312.92 767.164 1309.62 767.164 1305.73C767.164 1301.84 768.528 1298.54 771.256 1295.81C773.985 1293 777.292 1291.59 781.178 1291.59C785.064 1291.59 788.413 1293 791.224 1295.81C793.953 1298.54 795.317 1301.84 795.317 1305.73C795.317 1309.62 793.953 1312.92 791.224 1315.65C788.413 1318.46 785.064 1319.87 781.178 1319.87ZM894.164 1319.87C890.195 1319.87 886.846 1318.46 884.118 1315.65C881.389 1312.92 880.025 1309.62 880.025 1305.73C880.025 1301.84 881.389 1298.54 884.118 1295.81C886.846 1293 890.195 1291.59 894.164 1291.59C898.05 1291.59 901.357 1293 904.086 1295.81C906.814 1298.54 908.178 1301.84 908.178 1305.73C908.178 1309.62 906.814 1312.92 904.086 1315.65C901.357 1318.46 898.05 1319.87 894.164 1319.87ZM781.178 1291.59C777.292 1291.59 773.985 1290.23 771.256 1287.5C768.528 1284.77 767.164 1281.42 767.164 1277.45C767.164 1273.57 768.528 1270.26 771.256 1267.53C773.985 1264.8 777.292 1263.44 781.178 1263.44C785.064 1263.44 788.413 1264.8 791.224 1267.53C793.953 1270.26 795.317 1273.57 795.317 1277.45C795.317 1281.42 793.953 1284.77 791.224 1287.5C788.413 1290.23 785.064 1291.59 781.178 1291.59ZM894.164 1291.59C890.195 1291.59 886.846 1290.23 884.118 1287.5C881.389 1284.77 880.025 1281.42 880.025 1277.45C880.025 1273.57 881.389 1270.26 884.118 1267.53C886.846 1264.8 890.195 1263.44 894.164 1263.44C898.05 1263.44 901.357 1264.8 904.086 1267.53C906.814 1270.26 908.178 1273.57 908.178 1277.45C908.178 1281.42 906.814 1284.77 904.086 1287.5C901.357 1290.23 898.05 1291.59 894.164 1291.59ZM809.456 1263.44C805.57 1263.44 802.221 1262.03 799.41 1259.22C796.681 1256.49 795.317 1253.19 795.317 1249.3C795.317 1245.41 796.681 1242.11 799.41 1239.38C802.221 1236.57 805.57 1235.16 809.456 1235.16C813.342 1235.16 816.649 1236.57 819.378 1239.38C822.189 1242.11 823.594 1245.41 823.594 1249.3C823.594 1253.19 822.189 1256.49 819.378 1259.22C816.649 1262.03 813.342 1263.44 809.456 1263.44ZM865.886 1263.44C862 1263.44 858.693 1262.03 855.964 1259.22C853.153 1256.49 851.748 1253.19 851.748 1249.3C851.748 1245.41 853.153 1242.11 855.964 1239.38C858.693 1236.57 862 1235.16 865.886 1235.16C869.772 1235.16 873.08 1236.57 875.808 1239.38C878.619 1242.11 880.025 1245.41 880.025 1249.3C880.025 1253.19 878.619 1256.49 875.808 1259.22C873.08 1262.03 869.772 1263.44 865.886 1263.44ZM837.609 1235.16C833.723 1235.16 830.416 1233.8 827.687 1231.07C824.959 1228.26 823.594 1224.91 823.594 1221.02C823.594 1217.14 824.959 1213.83 827.687 1211.1C830.416 1208.37 833.723 1207.01 837.609 1207.01C841.578 1207.01 844.926 1208.37 847.655 1211.1C850.383 1213.83 851.748 1217.14 851.748 1221.02C851.748 1224.99 850.383 1228.34 847.655 1231.07C844.844 1233.8 841.495 1235.16 837.609 1235.16ZM950.594 1404.45C946.708 1404.45 943.401 1403.09 940.672 1400.36C937.944 1397.63 936.58 1394.33 936.58 1390.44C936.58 1386.55 937.944 1383.2 940.672 1380.39C943.401 1377.66 946.708 1376.3 950.594 1376.3C954.48 1376.3 957.829 1377.66 960.64 1380.39C963.369 1383.2 964.733 1386.55 964.733 1390.44C964.733 1394.33 963.369 1397.63 960.64 1400.36C957.829 1403.09 954.48 1404.45 950.594 1404.45ZM1063.58 1404.45C1059.61 1404.45 1056.26 1403.09 1053.53 1400.36C1050.81 1397.63 1049.44 1394.33 1049.44 1390.44C1049.44 1386.55 1050.81 1383.2 1053.53 1380.39C1056.26 1377.66 1059.61 1376.3 1063.58 1376.3C1067.47 1376.3 1070.77 1377.66 1073.5 1380.39C1076.23 1383.2 1077.59 1386.55 1077.59 1390.44C1077.59 1394.33 1076.23 1397.63 1073.5 1400.36C1070.77 1403.09 1067.47 1404.45 1063.58 1404.45ZM950.594 1376.3C946.708 1376.3 943.401 1374.94 940.672 1372.21C937.944 1369.4 936.58 1366.05 936.58 1362.16C936.58 1358.28 937.944 1354.97 940.672 1352.24C943.401 1349.43 946.708 1348.02 950.594 1348.02C954.48 1348.02 957.829 1349.43 960.64 1352.24C963.369 1354.97 964.733 1358.28 964.733 1362.16C964.733 1366.05 963.369 1369.4 960.64 1372.21C957.829 1374.94 954.48 1376.3 950.594 1376.3ZM1035.3 1376.3C1031.42 1376.3 1028.11 1374.94 1025.38 1372.21C1022.57 1369.4 1021.16 1366.05 1021.16 1362.16C1021.16 1358.28 1022.57 1354.97 1025.38 1352.24C1028.11 1349.43 1031.42 1348.02 1035.3 1348.02C1039.19 1348.02 1042.5 1349.43 1045.22 1352.24C1048.04 1354.97 1049.44 1358.28 1049.44 1362.16C1049.44 1366.05 1048.04 1369.4 1045.22 1372.21C1042.5 1374.94 1039.19 1376.3 1035.3 1376.3ZM950.594 1348.02C946.708 1348.02 943.401 1346.66 940.672 1343.93C937.944 1341.2 936.58 1337.89 936.58 1334.01C936.58 1330.04 937.944 1326.69 940.672 1323.96C943.401 1321.23 946.708 1319.87 950.594 1319.87C954.48 1319.87 957.829 1321.23 960.64 1323.96C963.369 1326.77 964.733 1330.12 964.733 1334.01C964.733 1337.89 963.369 1341.2 960.64 1343.93C957.829 1346.66 954.48 1348.02 950.594 1348.02ZM1007.03 1348.02C1003.14 1348.02 999.832 1346.66 997.103 1343.93C994.375 1341.2 993.01 1337.89 993.01 1334.01C993.01 1330.04 994.375 1326.69 997.103 1323.96C999.832 1321.23 1003.14 1319.87 1007.03 1319.87C1010.99 1319.87 1014.34 1321.23 1017.07 1323.96C1019.8 1326.77 1021.16 1330.12 1021.16 1334.01C1021.16 1337.89 1019.8 1341.2 1017.07 1343.93C1014.26 1346.66 1010.91 1348.02 1007.03 1348.02ZM950.594 1319.87C946.708 1319.87 943.401 1318.46 940.672 1315.65C937.944 1312.92 936.58 1309.62 936.58 1305.73C936.58 1301.84 937.944 1298.54 940.672 1295.81C943.401 1293 946.708 1291.59 950.594 1291.59C954.48 1291.59 957.829 1293 960.64 1295.81C963.369 1298.54 964.733 1301.84 964.733 1305.73C964.733 1309.62 963.369 1312.92 960.64 1315.65C957.829 1318.46 954.48 1319.87 950.594 1319.87ZM978.872 1319.87C974.986 1319.87 971.637 1318.46 968.826 1315.65C966.097 1312.92 964.733 1309.62 964.733 1305.73C964.733 1301.84 966.097 1298.54 968.826 1295.81C971.637 1293 974.986 1291.59 978.872 1291.59C982.758 1291.59 986.065 1293 988.794 1295.81C991.605 1298.54 993.01 1301.84 993.01 1305.73C993.01 1309.62 991.605 1312.92 988.794 1315.65C986.065 1318.46 982.758 1319.87 978.872 1319.87ZM1007.03 1319.87C1003.14 1319.87 999.832 1318.46 997.103 1315.65C994.375 1312.92 993.01 1309.62 993.01 1305.73C993.01 1301.84 994.375 1298.54 997.103 1295.81C999.832 1293 1003.14 1291.59 1007.03 1291.59C1010.99 1291.59 1014.34 1293 1017.07 1295.81C1019.8 1298.54 1021.16 1301.84 1021.16 1305.73C1021.16 1309.62 1019.8 1312.92 1017.07 1315.65C1014.26 1318.46 1010.91 1319.87 1007.03 1319.87ZM1035.3 1319.87C1031.42 1319.87 1028.11 1318.46 1025.38 1315.65C1022.57 1312.92 1021.16 1309.62 1021.16 1305.73C1021.16 1301.84 1022.57 1298.54 1025.38 1295.81C1028.11 1293 1031.42 1291.59 1035.3 1291.59C1039.19 1291.59 1042.5 1293 1045.22 1295.81C1048.04 1298.54 1049.44 1301.84 1049.44 1305.73C1049.44 1309.62 1048.04 1312.92 1045.22 1315.65C1042.5 1318.46 1039.19 1319.87 1035.3 1319.87ZM950.594 1291.59C946.708 1291.59 943.401 1290.23 940.672 1287.5C937.944 1284.77 936.58 1281.42 936.58 1277.45C936.58 1273.57 937.944 1270.26 940.672 1267.53C943.401 1264.8 946.708 1263.44 950.594 1263.44C954.48 1263.44 957.829 1264.8 960.64 1267.53C963.369 1270.26 964.733 1273.57 964.733 1277.45C964.733 1281.42 963.369 1284.77 960.64 1287.5C957.829 1290.23 954.48 1291.59 950.594 1291.59ZM1063.58 1291.59C1059.61 1291.59 1056.26 1290.23 1053.53 1287.5C1050.81 1284.77 1049.44 1281.42 1049.44 1277.45C1049.44 1273.57 1050.81 1270.26 1053.53 1267.53C1056.26 1264.8 1059.61 1263.44 1063.58 1263.44C1067.47 1263.44 1070.77 1264.8 1073.5 1267.53C1076.23 1270.26 1077.59 1273.57 1077.59 1277.45C1077.59 1281.42 1076.23 1284.77 1073.5 1287.5C1070.77 1290.23 1067.47 1291.59 1063.58 1291.59ZM950.594 1263.44C946.708 1263.44 943.401 1262.03 940.672 1259.22C937.944 1256.49 936.58 1253.19 936.58 1249.3C936.58 1245.41 937.944 1242.11 940.672 1239.38C943.401 1236.57 946.708 1235.16 950.594 1235.16C954.48 1235.16 957.829 1236.57 960.64 1239.38C963.369 1242.11 964.733 1245.41 964.733 1249.3C964.733 1253.19 963.369 1256.49 960.64 1259.22C957.829 1262.03 954.48 1263.44 950.594 1263.44ZM1063.58 1263.44C1059.61 1263.44 1056.26 1262.03 1053.53 1259.22C1050.81 1256.49 1049.44 1253.19 1049.44 1249.3C1049.44 1245.41 1050.81 1242.11 1053.53 1239.38C1056.26 1236.57 1059.61 1235.16 1063.58 1235.16C1067.47 1235.16 1070.77 1236.57 1073.5 1239.38C1076.23 1242.11 1077.59 1245.41 1077.59 1249.3C1077.59 1253.19 1076.23 1256.49 1073.5 1259.22C1070.77 1262.03 1067.47 1263.44 1063.58 1263.44ZM950.594 1235.16C946.708 1235.16 943.401 1233.8 940.672 1231.07C937.944 1228.26 936.58 1224.91 936.58 1221.02C936.58 1217.14 937.944 1213.83 940.672 1211.1C943.401 1208.37 946.708 1207.01 950.594 1207.01C954.48 1207.01 957.829 1208.37 960.64 1211.1C963.369 1213.83 964.733 1217.14 964.733 1221.02C964.733 1224.99 963.369 1228.34 960.64 1231.07C957.829 1233.8 954.48 1235.16 950.594 1235.16ZM978.872 1235.16C974.986 1235.16 971.637 1233.8 968.826 1231.07C966.097 1228.26 964.733 1224.91 964.733 1221.02C964.733 1217.14 966.097 1213.83 968.826 1211.1C971.637 1208.37 974.986 1207.01 978.872 1207.01C982.758 1207.01 986.065 1208.37 988.794 1211.1C991.605 1213.83 993.01 1217.14 993.01 1221.02C993.01 1224.99 991.605 1228.34 988.794 1231.07C986.065 1233.8 982.758 1235.16 978.872 1235.16ZM1007.03 1235.16C1003.14 1235.16 999.832 1233.8 997.103 1231.07C994.375 1228.26 993.01 1224.91 993.01 1221.02C993.01 1217.14 994.375 1213.83 997.103 1211.1C999.832 1208.37 1003.14 1207.01 1007.03 1207.01C1010.99 1207.01 1014.34 1208.37 1017.07 1211.1C1019.8 1213.83 1021.16 1217.14 1021.16 1221.02C1021.16 1224.99 1019.8 1228.34 1017.07 1231.07C1014.26 1233.8 1010.91 1235.16 1007.03 1235.16ZM1035.3 1235.16C1031.42 1235.16 1028.11 1233.8 1025.38 1231.07C1022.57 1228.26 1021.16 1224.91 1021.16 1221.02C1021.16 1217.14 1022.57 1213.83 1025.38 1211.1C1028.11 1208.37 1031.42 1207.01 1035.3 1207.01C1039.19 1207.01 1042.5 1208.37 1045.22 1211.1C1048.04 1213.83 1049.44 1217.14 1049.44 1221.02C1049.44 1224.99 1048.04 1228.34 1045.22 1231.07C1042.5 1233.8 1039.19 1235.16 1035.3 1235.16ZM1162.3 1404.45C1158.42 1404.45 1155.11 1403.09 1152.38 1400.36C1149.65 1397.63 1148.29 1394.33 1148.29 1390.44C1148.29 1386.55 1149.65 1383.2 1152.38 1380.39C1155.11 1377.66 1158.42 1376.3 1162.3 1376.3C1166.27 1376.3 1169.62 1377.66 1172.35 1380.39C1175.08 1383.2 1176.44 1386.55 1176.44 1390.44C1176.44 1394.33 1175.08 1397.63 1172.35 1400.36C1169.54 1403.09 1166.19 1404.45 1162.3 1404.45ZM1162.3 1376.3C1158.42 1376.3 1155.11 1374.94 1152.38 1372.21C1149.65 1369.4 1148.29 1366.05 1148.29 1362.16C1148.29 1358.28 1149.65 1354.97 1152.38 1352.24C1155.11 1349.43 1158.42 1348.02 1162.3 1348.02C1166.27 1348.02 1169.62 1349.43 1172.35 1352.24C1175.08 1354.97 1176.44 1358.28 1176.44 1362.16C1176.44 1366.05 1175.08 1369.4 1172.35 1372.21C1169.54 1374.94 1166.19 1376.3 1162.3 1376.3ZM1162.3 1348.02C1158.42 1348.02 1155.11 1346.66 1152.38 1343.93C1149.65 1341.2 1148.29 1337.89 1148.29 1334.01C1148.29 1330.04 1149.65 1326.69 1152.38 1323.96C1155.11 1321.23 1158.42 1319.87 1162.3 1319.87C1166.27 1319.87 1169.62 1321.23 1172.35 1323.96C1175.08 1326.77 1176.44 1330.12 1176.44 1334.01C1176.44 1337.89 1175.08 1341.2 1172.35 1343.93C1169.54 1346.66 1166.19 1348.02 1162.3 1348.02ZM1162.3 1319.87C1158.42 1319.87 1155.11 1318.46 1152.38 1315.65C1149.65 1312.92 1148.29 1309.62 1148.29 1305.73C1148.29 1301.84 1149.65 1298.54 1152.38 1295.81C1155.11 1293 1158.42 1291.59 1162.3 1291.59C1166.27 1291.59 1169.62 1293 1172.35 1295.81C1175.08 1298.54 1176.44 1301.84 1176.44 1305.73C1176.44 1309.62 1175.08 1312.92 1172.35 1315.65C1169.54 1318.46 1166.19 1319.87 1162.3 1319.87ZM1162.3 1291.59C1158.42 1291.59 1155.11 1290.23 1152.38 1287.5C1149.65 1284.77 1148.29 1281.42 1148.29 1277.45C1148.29 1273.57 1149.65 1270.26 1152.38 1267.53C1155.11 1264.8 1158.42 1263.44 1162.3 1263.44C1166.27 1263.44 1169.62 1264.8 1172.35 1267.53C1175.08 1270.26 1176.44 1273.57 1176.44 1277.45C1176.44 1281.42 1175.08 1284.77 1172.35 1287.5C1169.54 1290.23 1166.19 1291.59 1162.3 1291.59ZM1162.3 1263.44C1158.42 1263.44 1155.11 1262.03 1152.38 1259.22C1149.65 1256.49 1148.29 1253.19 1148.29 1249.3C1148.29 1245.41 1149.65 1242.11 1152.38 1239.38C1155.11 1236.57 1158.42 1235.16 1162.3 1235.16C1166.27 1235.16 1169.62 1236.57 1172.35 1239.38C1175.08 1242.11 1176.44 1245.41 1176.44 1249.3C1176.44 1253.19 1175.08 1256.49 1172.35 1259.22C1169.54 1262.03 1166.19 1263.44 1162.3 1263.44ZM1105.87 1235.16C1101.99 1235.16 1098.68 1233.8 1095.95 1231.07C1093.22 1228.26 1091.86 1224.91 1091.86 1221.02C1091.86 1217.14 1093.22 1213.83 1095.95 1211.1C1098.68 1208.37 1101.99 1207.01 1105.87 1207.01C1109.76 1207.01 1113.11 1208.37 1115.92 1211.1C1118.65 1213.83 1120.01 1217.14 1120.01 1221.02C1120.01 1224.99 1118.65 1228.34 1115.92 1231.07C1113.11 1233.8 1109.76 1235.16 1105.87 1235.16ZM1134.15 1235.16C1130.26 1235.16 1126.91 1233.8 1124.1 1231.07C1121.37 1228.26 1120.01 1224.91 1120.01 1221.02C1120.01 1217.14 1121.37 1213.83 1124.1 1211.1C1126.91 1208.37 1130.26 1207.01 1134.15 1207.01C1138.04 1207.01 1141.34 1208.37 1144.07 1211.1C1146.88 1213.83 1148.29 1217.14 1148.29 1221.02C1148.29 1224.99 1146.88 1228.34 1144.07 1231.07C1141.34 1233.8 1138.04 1235.16 1134.15 1235.16ZM1162.3 1235.16C1158.42 1235.16 1155.11 1233.8 1152.38 1231.07C1149.65 1228.26 1148.29 1224.91 1148.29 1221.02C1148.29 1217.14 1149.65 1213.83 1152.38 1211.1C1155.11 1208.37 1158.42 1207.01 1162.3 1207.01C1166.27 1207.01 1169.62 1208.37 1172.35 1211.1C1175.08 1213.83 1176.44 1217.14 1176.44 1221.02C1176.44 1224.99 1175.08 1228.34 1172.35 1231.07C1169.54 1233.8 1166.19 1235.16 1162.3 1235.16ZM1190.58 1235.16C1186.69 1235.16 1183.39 1233.8 1180.66 1231.07C1177.85 1228.26 1176.44 1224.91 1176.44 1221.02C1176.44 1217.14 1177.85 1213.83 1180.66 1211.1C1183.39 1208.37 1186.69 1207.01 1190.58 1207.01C1194.47 1207.01 1197.77 1208.37 1200.5 1211.1C1203.31 1213.83 1204.72 1217.14 1204.72 1221.02C1204.72 1224.99 1203.31 1228.34 1200.5 1231.07C1197.77 1233.8 1194.47 1235.16 1190.58 1235.16ZM1218.86 1235.16C1214.89 1235.16 1211.54 1233.8 1208.81 1231.07C1206.08 1228.26 1204.72 1224.91 1204.72 1221.02C1204.72 1217.14 1206.08 1213.83 1208.81 1211.1C1211.54 1208.37 1214.89 1207.01 1218.86 1207.01C1222.74 1207.01 1226.05 1208.37 1228.78 1211.1C1231.51 1213.83 1232.87 1217.14 1232.87 1221.02C1232.87 1224.99 1231.51 1228.34 1228.78 1231.07C1226.05 1233.8 1222.74 1235.16 1218.86 1235.16ZM1331.72 1404.45C1327.83 1404.45 1324.53 1403.09 1321.8 1400.36C1319.07 1397.63 1317.7 1394.33 1317.7 1390.44C1317.7 1386.55 1319.07 1383.2 1321.8 1380.39C1324.53 1377.66 1327.83 1376.3 1331.72 1376.3C1335.69 1376.3 1339.04 1377.66 1341.76 1380.39C1344.49 1383.2 1345.86 1386.55 1345.86 1390.44C1345.86 1394.33 1344.49 1397.63 1341.76 1400.36C1338.95 1403.09 1335.6 1404.45 1331.72 1404.45ZM1331.72 1376.3C1327.83 1376.3 1324.53 1374.94 1321.8 1372.21C1319.07 1369.4 1317.7 1366.05 1317.7 1362.16C1317.7 1358.28 1319.07 1354.97 1321.8 1352.24C1324.53 1349.43 1327.83 1348.02 1331.72 1348.02C1335.69 1348.02 1339.04 1349.43 1341.76 1352.24C1344.49 1354.97 1345.86 1358.28 1345.86 1362.16C1345.86 1366.05 1344.49 1369.4 1341.76 1372.21C1338.95 1374.94 1335.6 1376.3 1331.72 1376.3ZM1331.72 1348.02C1327.83 1348.02 1324.53 1346.66 1321.8 1343.93C1319.07 1341.2 1317.7 1337.89 1317.7 1334.01C1317.7 1330.04 1319.07 1326.69 1321.8 1323.96C1324.53 1321.23 1327.83 1319.87 1331.72 1319.87C1335.69 1319.87 1339.04 1321.23 1341.76 1323.96C1344.49 1326.77 1345.86 1330.12 1345.86 1334.01C1345.86 1337.89 1344.49 1341.2 1341.76 1343.93C1338.95 1346.66 1335.6 1348.02 1331.72 1348.02ZM1331.72 1319.87C1327.83 1319.87 1324.53 1318.46 1321.8 1315.65C1319.07 1312.92 1317.7 1309.62 1317.7 1305.73C1317.7 1301.84 1319.07 1298.54 1321.8 1295.81C1324.53 1293 1327.83 1291.59 1331.72 1291.59C1335.69 1291.59 1339.04 1293 1341.76 1295.81C1344.49 1298.54 1345.86 1301.84 1345.86 1305.73C1345.86 1309.62 1344.49 1312.92 1341.76 1315.65C1338.95 1318.46 1335.6 1319.87 1331.72 1319.87ZM1331.72 1291.59C1327.83 1291.59 1324.53 1290.23 1321.8 1287.5C1319.07 1284.77 1317.7 1281.42 1317.7 1277.45C1317.7 1273.57 1319.07 1270.26 1321.8 1267.53C1324.53 1264.8 1327.83 1263.44 1331.72 1263.44C1335.69 1263.44 1339.04 1264.8 1341.76 1267.53C1344.49 1270.26 1345.86 1273.57 1345.86 1277.45C1345.86 1281.42 1344.49 1284.77 1341.76 1287.5C1338.95 1290.23 1335.6 1291.59 1331.72 1291.59ZM1331.72 1263.44C1327.83 1263.44 1324.53 1262.03 1321.8 1259.22C1319.07 1256.49 1317.7 1253.19 1317.7 1249.3C1317.7 1245.41 1319.07 1242.11 1321.8 1239.38C1324.53 1236.57 1327.83 1235.16 1331.72 1235.16C1335.69 1235.16 1339.04 1236.57 1341.76 1239.38C1344.49 1242.11 1345.86 1245.41 1345.86 1249.3C1345.86 1253.19 1344.49 1256.49 1341.76 1259.22C1338.95 1262.03 1335.6 1263.44 1331.72 1263.44ZM1275.29 1235.16C1271.4 1235.16 1268.09 1233.8 1265.37 1231.07C1262.64 1228.26 1261.27 1224.91 1261.27 1221.02C1261.27 1217.14 1262.64 1213.83 1265.37 1211.1C1268.09 1208.37 1271.4 1207.01 1275.29 1207.01C1279.17 1207.01 1282.52 1208.37 1285.33 1211.1C1288.06 1213.83 1289.43 1217.14 1289.43 1221.02C1289.43 1224.99 1288.06 1228.34 1285.33 1231.07C1282.52 1233.8 1279.17 1235.16 1275.29 1235.16ZM1303.57 1235.16C1299.68 1235.16 1296.33 1233.8 1293.52 1231.07C1290.79 1228.26 1289.43 1224.91 1289.43 1221.02C1289.43 1217.14 1290.79 1213.83 1293.52 1211.1C1296.33 1208.37 1299.68 1207.01 1303.57 1207.01C1307.45 1207.01 1310.76 1208.37 1313.49 1211.1C1316.3 1213.83 1317.7 1217.14 1317.7 1221.02C1317.7 1224.99 1316.3 1228.34 1313.49 1231.07C1310.76 1233.8 1307.45 1235.16 1303.57 1235.16ZM1331.72 1235.16C1327.83 1235.16 1324.53 1233.8 1321.8 1231.07C1319.07 1228.26 1317.7 1224.91 1317.7 1221.02C1317.7 1217.14 1319.07 1213.83 1321.8 1211.1C1324.53 1208.37 1327.83 1207.01 1331.72 1207.01C1335.69 1207.01 1339.04 1208.37 1341.76 1211.1C1344.49 1213.83 1345.86 1217.14 1345.86 1221.02C1345.86 1224.99 1344.49 1228.34 1341.76 1231.07C1338.95 1233.8 1335.6 1235.16 1331.72 1235.16ZM1360 1235.16C1356.11 1235.16 1352.8 1233.8 1350.07 1231.07C1347.26 1228.26 1345.86 1224.91 1345.86 1221.02C1345.86 1217.14 1347.26 1213.83 1350.07 1211.1C1352.8 1208.37 1356.11 1207.01 1360 1207.01C1363.88 1207.01 1367.19 1208.37 1369.92 1211.1C1372.73 1213.83 1374.13 1217.14 1374.13 1221.02C1374.13 1224.99 1372.73 1228.34 1369.92 1231.07C1367.19 1233.8 1363.88 1235.16 1360 1235.16ZM1388.27 1235.16C1384.3 1235.16 1380.96 1233.8 1378.23 1231.07C1375.5 1228.26 1374.13 1224.91 1374.13 1221.02C1374.13 1217.14 1375.5 1213.83 1378.23 1211.1C1380.96 1208.37 1384.3 1207.01 1388.27 1207.01C1392.16 1207.01 1395.47 1208.37 1398.19 1211.1C1400.92 1213.83 1402.29 1217.14 1402.29 1221.02C1402.29 1224.99 1400.92 1228.34 1398.19 1231.07C1395.47 1233.8 1392.16 1235.16 1388.27 1235.16Z" fill="white"/>
<path fill-rule="evenodd" clip-rule="evenodd" d="M1086.16 289.454H827.55V389.454H1139.87V489.592V583.803H1239.87V449.315L1183.59 390.778L1139.88 443.83V390.633L1158.25 364.434L1182.39 389.528L1086.16 289.454ZM1239.87 624.462H1139.87V995.454H1042.81H817.8H715.874V490.221V389.454H786.891V289.454H775.719L615.874 448.687V928.456L774.948 1095.45H1086.94L1239.87 927.836V624.462Z" fill="#FACC15"/>
<path d="M828.555 389.453L828.554 289.452L977.245 289.452L1086.16 289.452L1158.25 364.43L700.479 1017.16L627.701 940.284L1008 389.453L828.555 389.453Z" fill="#FACC15"/>
<path d="M1139.98 583.802L1139.87 411.546L1166.18 373.368L1239.6 448.81V583.802H1139.98Z" fill="#FACC15"/>
</svg>
